<?xml version="1.0" standalone="no"?>
<!DOCTYPE svg PUBLIC "-//W3C//DTD SVG 20010904//EN"
 "http://www.w3.org/TR/2001/REC-SVG-20010904/DTD/svg10.dtd">
<svg version="1.0" xmlns="http://www.w3.org/2000/svg"
 width="700.000000pt" height="700.000000pt" viewBox="0 0 700.000000 700.000000"
 preserveAspectRatio="xMidYMid meet">
<metadata>
Created by potrace 1.11, written by Peter Selinger 2001-2013
</metadata>
<g transform="translate(0.000000,700.000000) scale(0.100000,-0.100000)"
fill="#000000" stroke="none">
<path d="M0 3500 l0 -3500 3500 0 3500 0 0 3500 0 3500 -3500 0 -3500 0 0
-3500z m6650 0 l0 -3150 -3150 0 -3150 0 0 3150 0 3150 3150 0 3150 0 0 -3150z"/>
<path d="M745 6248 c-3 -7 -4 -1248 -3 -2758 l3 -2745 2755 0 2755 0 0 2755 0
2755 -2753 3 c-2197 2 -2754 0 -2757 -10z m3134 -1062 c134 -25 229 -54 330
-101 332 -158 535 -453 626 -913 l7 -32 -213 2 -212 3 -28 105 c-33 126 -57
183 -116 272 -133 202 -402 317 -741 318 -265 0 -501 -96 -671 -275 -177 -186
-278 -416 -332 -755 -22 -132 -19 -527 5 -660 117 -667 534 -1032 1130 -989
218 16 387 90 526 229 133 133 211 301 264 567 9 43 18 88 21 101 5 22 6 22
220 22 l215 0 -6 -42 c-17 -117 -57 -297 -89 -394 -132 -405 -383 -668 -748
-784 -171 -54 -250 -65 -497 -65 -255 0 -344 12 -520 71 -455 152 -783 563
-909 1139 -60 274 -62 651 -5 940 92 470 345 874 669 1067 168 100 366 164
585 187 116 13 386 5 489 -13z"/>
</g>
</svg>
