<?xml version="1.0" standalone="no"?>
<!DOCTYPE svg PUBLIC "-//W3C//DTD SVG 20010904//EN"
 "http://www.w3.org/TR/2001/REC-SVG-20010904/DTD/svg10.dtd">
<svg version="1.0" xmlns="http://www.w3.org/2000/svg"
 width="1024.000000pt" height="1024.000000pt" viewBox="0 0 1024.000000 1024.000000"
 preserveAspectRatio="xMidYMid meet">
<metadata>
Created by potrace 1.11, written by Peter Selinger 2001-2013
</metadata>
<g transform="translate(0.000000,1024.000000) scale(0.100000,-0.100000)"
fill="#000000" stroke="none">
<path d="M620 5120 l0 -4500 4500 0 4500 0 0 4500 0 4500 -4500 0 -4500 0 0
-4500z m8587 2 l-2 -4087 -4087 -2 -4087 -2 0 4089 0 4089 4089 0 4089 0 -2
-4087z"/>
<path d="M5378 8475 c-2 -1 -52 -6 -113 -9 -60 -3 -126 -8 -145 -10 -19 -3
-62 -7 -94 -11 -75 -7 -172 -22 -331 -49 -158 -28 -496 -120 -610 -166 -16 -7
-39 -16 -50 -21 -368 -150 -644 -327 -890 -574 -123 -122 -157 -160 -233 -261
-65 -88 -162 -230 -162 -239 0 -3 -11 -23 -25 -45 -65 -103 -186 -369 -243
-535 -40 -116 -102 -351 -127 -485 -12 -61 -34 -200 -40 -250 -4 -30 -9 -62
-10 -70 -2 -8 -6 -49 -10 -90 -4 -41 -8 -91 -10 -110 -11 -107 -18 -322 -17
-515 1 -198 4 -272 16 -400 2 -22 7 -71 11 -108 3 -37 8 -78 11 -90 2 -12 6
-40 9 -62 7 -61 39 -231 56 -300 33 -135 51 -201 85 -303 114 -346 323 -730
515 -947 130 -148 160 -179 239 -249 36 -32 79 -71 95 -86 115 -104 381 -273
582 -370 218 -106 533 -216 703 -246 14 -3 41 -9 60 -14 36 -9 89 -20 125 -25
11 -2 47 -8 80 -14 69 -12 105 -17 190 -26 33 -3 69 -8 80 -10 130 -26 906
-26 1162 0 21 2 75 6 119 10 45 3 93 8 105 10 13 2 56 6 95 9 39 4 80 8 90 10
11 2 46 7 79 10 33 4 71 9 85 11 14 2 86 14 160 25 168 27 206 33 320 55 14 3
39 7 55 10 114 22 448 103 520 125 29 10 30 12 31 77 1 38 5 244 9 458 11 582
18 976 16 1000 -1 11 -304 15 -314 5 -3 -3 -8 -27 -11 -54 -4 -27 -9 -52 -10
-55 -2 -3 -7 -28 -10 -55 -4 -27 -9 -53 -11 -57 -3 -4 -7 -24 -10 -45 -3 -22
-8 -50 -11 -64 -2 -14 -6 -36 -9 -50 -3 -14 -7 -36 -10 -50 -3 -14 -7 -43 -11
-65 -3 -22 -7 -48 -10 -57 -6 -20 -4 -12 -45 -237 l-33 -183 -73 -49 c-101
-69 -257 -149 -393 -203 -108 -42 -392 -129 -463 -141 -18 -3 -39 -8 -47 -10
-18 -6 -226 -41 -290 -50 -25 -3 -56 -8 -70 -10 -129 -22 -515 -33 -715 -21
-212 13 -496 71 -689 140 -102 37 -328 146 -357 172 -8 8 -19 14 -22 14 -13 0
-152 103 -222 164 -249 217 -440 491 -580 834 -120 294 -209 671 -239 1007 -9
92 -17 199 -22 265 -5 78 -5 612 1 690 2 30 6 103 10 163 3 59 8 117 10 130 2
12 6 54 10 92 8 84 10 103 36 265 82 517 264 971 515 1284 317 394 733 611
1324 691 14 2 43 6 65 9 185 26 702 28 830 2 11 -2 52 -7 90 -12 39 -4 72 -8
75 -9 3 -1 28 -5 55 -9 174 -28 473 -108 660 -178 108 -40 294 -127 387 -182
46 -27 47 -28 58 -99 13 -76 17 -97 25 -137 2 -14 7 -45 10 -70 3 -25 8 -52
10 -60 4 -15 9 -42 20 -114 4 -21 9 -48 11 -60 6 -30 11 -56 34 -195 11 -67
23 -127 26 -132 3 -5 76 -9 163 -9 l157 0 -2 113 c-1 61 -5 238 -8 392 -3 154
-9 424 -12 600 -3 176 -7 321 -9 323 -1 1 -11 5 -21 7 -30 7 -227 46 -254 51
-14 2 -70 13 -125 24 -84 16 -218 39 -325 55 -14 2 -43 6 -65 9 -22 4 -56 9
-75 11 -92 11 -124 15 -149 19 -14 3 -55 8 -91 11 -36 3 -78 8 -95 10 -16 2
-61 7 -100 10 -38 3 -88 8 -110 10 -22 2 -89 7 -150 11 -60 4 -123 8 -140 10
-37 5 -762 13 -767 9z"/>
</g>
</svg>
