<?xml version="1.0" standalone="no"?>
<!DOCTYPE svg PUBLIC "-//W3C//DTD SVG 20010904//EN"
 "http://www.w3.org/TR/2001/REC-SVG-20010904/DTD/svg10.dtd">
<svg version="1.0" xmlns="http://www.w3.org/2000/svg"
 width="700.000000pt" height="700.000000pt" viewBox="0 0 700.000000 700.000000"
 preserveAspectRatio="xMidYMid meet">
<metadata>
Created by potrace 1.11, written by Peter Selinger 2001-2013
</metadata>
<g transform="translate(0.000000,700.000000) scale(0.100000,-0.100000)"
fill="#000000" stroke="none">
<path d="M350 3500 l0 -3150 3150 0 3150 0 0 3150 0 3150 -3150 0 -3150 0 0
-3150z m5904 10 c0 -1510 -2 -2750 -3 -2755 -1 -7 -866 -11 -2753 -10 l-2753
0 -1 2750 c0 1513 0 2752 2 2755 1 3 1242 6 2756 6 l2754 0 -2 -2746z"/>
<path d="M3439 5206 c-2 -2 -31 -7 -64 -10 -122 -13 -220 -33 -320 -68 -229
-78 -408 -205 -571 -403 -184 -224 -339 -608 -370 -916 -3 -35 -9 -85 -13
-111 -9 -57 -7 -367 4 -463 6 -64 36 -239 49 -292 3 -13 8 -31 10 -40 93 -385
352 -751 664 -941 29 -17 55 -32 57 -32 3 0 33 -13 67 -29 54 -24 147 -56 198
-66 8 -2 36 -8 61 -14 25 -6 72 -13 105 -16 32 -4 70 -8 84 -11 33 -5 306 -5
345 0 17 3 48 7 70 10 140 17 306 66 425 126 360 182 577 533 655 1060 7 47
11 86 10 88 -2 2 -96 4 -210 4 -158 0 -209 -3 -215 -13 -5 -7 -11 -32 -15 -57
-18 -122 -66 -289 -111 -387 -165 -363 -538 -529 -1009 -449 -16 3 -64 16
-105 30 -398 134 -650 495 -717 1029 -10 80 -10 430 0 525 4 41 15 107 23 145
8 39 18 84 21 100 12 69 75 234 125 330 97 184 265 345 440 424 93 41 157 58
288 76 42 6 205 7 240 1 14 -2 48 -7 75 -11 155 -21 342 -100 437 -185 61 -54
132 -153 168 -235 12 -27 34 -97 49 -155 l28 -105 211 -1 c117 0 212 2 212 5
-1 29 -45 198 -71 273 -81 235 -211 429 -366 544 -21 16 -40 31 -43 34 -3 4
-27 20 -55 36 -109 66 -300 133 -424 150 -25 3 -55 8 -66 11 -25 6 -371 14
-376 9z"/>
</g>
</svg>
